<?xml version="1.0" encoding="UTF-8" standalone="no"?>
<svg
   xmlns:dc="http://purl.org/dc/elements/1.1/"
   xmlns:cc="http://creativecommons.org/ns#"
   xmlns:rdf="http://www.w3.org/1999/02/22-rdf-syntax-ns#"
   xmlns:svg="http://www.w3.org/2000/svg"
   xmlns="http://www.w3.org/2000/svg"
   id="svg24"
   version="1.2"
   viewBox="0 0 822 874"
   height="874pt"
   width="822pt">
  <metadata
     id="metadata28">
    <rdf:RDF>
      <cc:Work
         rdf:about="">
        <dc:format>image/svg+xml</dc:format>
        <dc:type
           rdf:resource="http://purl.org/dc/dcmitype/StillImage" />
      </cc:Work>
    </rdf:RDF>
  </metadata>
  <defs
     id="defs11">
    <clipPath
       id="clip1">
      <path
         id="path2"
         d="M 18.5,2.5 H 1898 V 1059 H 18.5 Z m 0,0" />
    </clipPath>
    <clipPath
       id="clip2">
      <path
         id="path5"
         d="m 604.5,362.5 h 395 v 96 h -395 z m 298,96 h 97 v 154 h -97 z m -298,154 h 395 v 7 h -395 z m 0,7 h 770 v 90 h -770 z m 359,90 h 411 v 6 h -411 z m 0,0" />
    </clipPath>
    <clipPath
       id="clip3">
      <path
         id="path8"
         d="m 960.5,98.5 h 363 v 7 h -363 z m -408,7 h 771 v 90 h -771 z m 0,90 h 443 v 6 h -443 z m 0,674 h 443 v 7 h -443 z m 0,7 h 771 v 90 h -771 z m 408,90 h 363 v 6 h -363 z m 0,0" />
    </clipPath>
  </defs>
  <g
     transform="translate(-552.5,-98.5)"
     id="surface190">
    <g
       style="clip-rule:nonzero"
       id="g13"
       clip-path="url(#clip1)" />
    <g
       style="clip-rule:nonzero"
       id="g17"
       clip-path="url(#clip2)">
      <rect
         id="rect15"
         style="fill:#eb0000;fill-opacity:0.94488196;stroke:none"
         height="1059"
         width="1898"
         y="0"
         x="0" />
    </g>
    <g
       style="clip-rule:nonzero"
       id="g21"
       clip-path="url(#clip3)">
      <rect
         id="rect19"
         style="fill:#d75c5c;fill-opacity:0.72440898;stroke:none"
         height="1059"
         width="1898"
         y="0"
         x="0" />
    </g>
  </g>
</svg>
