<?xml version="1.0" encoding="UTF-8" standalone="no"?>
<svg
   xmlns:dc="http://purl.org/dc/elements/1.1/"
   xmlns:cc="http://creativecommons.org/ns#"
   xmlns:rdf="http://www.w3.org/1999/02/22-rdf-syntax-ns#"
   xmlns:svg="http://www.w3.org/2000/svg"
   xmlns="http://www.w3.org/2000/svg"
   id="svg28"
   version="1.2"
   viewBox="0 0 321 876"
   height="876pt"
   width="321pt">
  <metadata
     id="metadata32">
    <rdf:RDF>
      <cc:Work
         rdf:about="">
        <dc:format>image/svg+xml</dc:format>
        <dc:type
           rdf:resource="http://purl.org/dc/dcmitype/StillImage" />
      </cc:Work>
    </rdf:RDF>
  </metadata>
  <defs
     id="defs11">
    <clipPath
       id="clip1">
      <path
         id="path2"
         d="M 18.5,2.5 H 1898 V 1059 H 18.5 Z m 0,0" />
    </clipPath>
    <clipPath
       id="clip2">
      <path
         id="path5"
         d="m 806.5,94.5 h 321 v 78 h -321 z m 0,78 h 321 v 166 h -321 z m 0,166 h 321 v 77 h -321 z m 0,0" />
    </clipPath>
    <clipPath
       id="clip3">
      <path
         id="path8"
         d="m 884.5,94.5 h 165 v 78 h -165 z m 0,78 h 165 v 166 h -165 z m 0,166 h 165 v 632 h -165 z m 0,0" />
    </clipPath>
  </defs>
  <g
     transform="translate(-806.5,-94.5)"
     id="surface200">
    <g
       style="clip-rule:nonzero"
       id="g13"
       clip-path="url(#clip1)" />
    <g
       style="clip-rule:nonzero"
       id="g17"
       clip-path="url(#clip2)">
      <rect
         id="rect15"
         style="fill:#eb0000;fill-opacity:0.94488196;stroke:none"
         height="1059"
         width="1898"
         y="0"
         x="0" />
    </g>
    <g
       style="clip-rule:nonzero"
       id="g21"
       clip-path="url(#clip3)">
      <rect
         id="rect19"
         style="fill:#2e7fff;fill-opacity:0.62992099;stroke:none"
         height="1059"
         width="1898"
         y="0"
         x="0" />
    </g>
    <path
       id="path23"
       transform="matrix(1,0,0,-1,0.5,1079.5)"
       d="m 884,907 h 165 M 884,741 h 165 m -165,0 v 166 m 165,-166 v 166"
       style="fill:none;stroke:#000000;stroke-width:2;stroke-linecap:butt;stroke-linejoin:miter;stroke-miterlimit:10;stroke-opacity:0.72440898" />
    <path
       id="path25"
       transform="matrix(1,0,0,-1,0.5,1079.5)"
       d="m 884,741 165,166 m -165,0 165,-166"
       style="fill:none;stroke:#000000;stroke-width:2;stroke-linecap:butt;stroke-linejoin:miter;stroke-miterlimit:10;stroke-opacity:0.72440898" />
  </g>
</svg>
