<?xml version="1.0" encoding="UTF-8" standalone="no"?>
<svg
   xmlns:dc="http://purl.org/dc/elements/1.1/"
   xmlns:cc="http://creativecommons.org/ns#"
   xmlns:rdf="http://www.w3.org/1999/02/22-rdf-syntax-ns#"
   xmlns:svg="http://www.w3.org/2000/svg"
   xmlns="http://www.w3.org/2000/svg"
   id="svg55"
   version="1.2"
   viewBox="0 0 666 877"
   height="877pt"
   width="666pt">
  <metadata
     id="metadata59">
    <rdf:RDF>
      <cc:Work
         rdf:about="">
        <dc:format>image/svg+xml</dc:format>
        <dc:type
           rdf:resource="http://purl.org/dc/dcmitype/StillImage" />
      </cc:Work>
    </rdf:RDF>
  </metadata>
  <defs
     id="defs8">
    <clipPath
       id="clip1">
      <path
         id="path2"
         d="M 18.5,2.5 H 1898 V 1059 H 18.5 Z m 0,0" />
    </clipPath>
    <clipPath
       id="clip2">
      <path
         id="path5"
         d="m 631.5,146.5 h 116 v 228 h -116 z m 0,550 h 116 v 227 h -116 z m 416,-600 h 100 v 877 h -100 z m -200,0 h 100 v 877 h -100 z m 400,0 h 50 v 877 h -50 z m 0,0" />
    </clipPath>
  </defs>
  <g
     transform="translate(-631.5,-96.5)"
     id="surface241">
    <g
       style="clip-rule:nonzero"
       id="g10"
       clip-path="url(#clip1)" />
    <g
       style="clip-rule:nonzero"
       id="g14"
       clip-path="url(#clip2)">
      <rect
         id="rect12"
         style="fill:#b066f0;fill-opacity:0.62992099;stroke:none"
         height="1059"
         width="1898"
         y="0"
         x="0" />
    </g>
    <path
       id="path16"
       d="m 654.31641,824.96484 0.14453,0.85938 0.1914,0.76172 0.28516,0.66797 0.28516,0.62109 0.42968,0.47656 0.47657,0.37891 0.52343,0.33594 0.6211,0.28515 0.66797,0.23828 0.76171,0.14453 0.8125,0.0937 h 0.90625 l 1.04688,-0.0469 1.00391,-0.14453 0.90625,-0.23828 0.76171,-0.33203 0.66797,-0.42969 0.57032,-0.52344 0.24218,-0.28906 0.23828,-0.33203 0.14063,-0.38282 0.14453,-0.3789 0.0469,-0.38281 0.0469,-0.42969 -0.0937,-0.57031 -0.14453,-0.52735 -0.23828,-0.47656 -0.38281,-0.42969 -0.47657,-0.3789 -0.52343,-0.38282 -0.28516,-0.0937 -0.28516,-0.14453 -0.33593,-0.14453 -0.33204,-0.0937 -0.38281,-0.0977 -0.38281,-0.14062 -3.71875,-0.90625 -1.57422,-0.38281 -1.38281,-0.47657 -1.19141,-0.47656 -1.04687,-0.52344 -0.8125,-0.57421 -0.6211,-0.66797 -0.42968,-0.52344 -0.28516,-0.57031 -0.28516,-0.66797 -0.14453,-0.71485 -0.14062,-0.76562 v -0.85547 l 0.0469,-1.19531 0.23828,-1.09375 0.42969,-1.05078 0.57031,-0.90625 0.76563,-0.8086 0.90625,-0.76562 0.90625,-0.52344 1,-0.42969 1.04687,-0.38281 1.14453,-0.23828 1.19532,-0.14063 1.33203,-0.0977 1.8125,0.14453 1.67187,0.28516 1.42969,0.47656 1.23828,0.71484 1.00391,0.90625 0.85547,1.05078 0.28906,0.6211 0.28516,0.61718 0.1914,0.66797 0.14063,0.71485 0.0976,0.71484 0.0469,0.76563 h -4.19531 l -0.14454,-1.05079 -0.33203,-0.90625 -0.57422,-0.76171 -0.76171,-0.52344 -0.95313,-0.42969 -1.14453,-0.23828 h -0.38281 l -0.19141,-0.0469 h -0.38281 l -0.14063,-0.0508 -1.09765,0.0977 -0.95313,0.14062 -0.8125,0.23829 -0.71484,0.38281 -0.61719,0.42969 -0.47656,0.52343 -0.24219,0.33594 -0.14062,0.28516 -0.0977,0.33203 -0.0937,0.33594 -0.0469,0.33203 v 0.33593 l 0.0469,0.61719 0.19141,0.52735 0.33203,0.52343 0.42968,0.42969 0.57422,0.42969 0.76172,0.33203 0.28516,0.14453 0.38281,0.0937 0.33203,0.14453 0.42969,0.0937 0.38281,0.14453 0.47656,0.0937 3.81641,0.90625 1.52344,0.42969 1.33594,0.52344 1.14453,0.57422 0.95312,0.66797 0.76172,0.71484 0.57422,0.80859 0.23828,0.48047 0.19141,0.52344 0.14062,0.47656 0.0977,0.57031 0.0469,0.57422 0.0469,0.6211 -0.0937,1.23828 -0.28516,1.14453 -0.42969,1.04687 -0.62109,0.95704 -0.76172,0.85546 -0.95312,0.76563 -1.00391,0.61719 -1.04687,0.42968 -1.14454,0.38282 -1.24218,0.23828 -1.33594,0.14453 -1.38281,0.0937 -2.52735,-0.19141 -2.14453,-0.47656 -1.76562,-0.76172 -1.42969,-1.14453 -1.04688,-1.48047 -0.66796,-1.8125 -0.14454,-0.3789 -0.0937,-0.42969 -0.0508,-0.42969 -0.0469,-0.42969 -0.0469,-0.47656 v -0.52344 z m 0,0"
       style="fill:#ffff00;fill-opacity:0.72440898;fill-rule:nonzero;stroke:none" />
    <path
       id="path18"
       d="m 691.55859,815.09375 -0.0937,-1.05078 -0.23828,-0.90625 -0.38281,-0.8086 -0.57031,-0.66796 -0.71485,-0.57422 -0.8125,-0.47657 -0.3789,-0.0937 -0.38282,-0.14453 -0.38281,-0.0469 -0.42969,-0.0937 h -0.3789 l -0.38281,-0.0508 -1.09766,0.0976 -1,0.23828 -0.90625,0.38282 -0.85938,0.52343 -0.76171,0.66797 -0.6211,0.8086 -0.47656,0.8125 -0.38281,0.85937 -0.28516,0.90625 -0.23828,1 -0.14063,1.04688 v 14.8789 h -3.96093 v -34.76172 h 3.96093 v 13.20704 l 0.71485,-0.85547 0.76172,-0.8125 0.76172,-0.66797 0.76562,-0.57031 0.76172,-0.42969 0.80859,-0.33594 0.48047,-0.14062 0.52344,-0.0977 0.57031,-0.0937 0.57422,-0.0469 0.62109,-0.0469 0.66407,-0.0508 1.38281,0.0977 1.28906,0.23829 1.14453,0.33203 1,0.52734 0.90625,0.66406 0.76563,0.76563 0.3789,0.61719 0.33594,0.62109 0.28516,0.66797 0.1914,0.71484 0.14063,0.76172 0.0508,0.8125 v 18.88281 h -3.96094 z m 0,0"
       style="fill:#ffff00;fill-opacity:0.72440898;fill-rule:nonzero;stroke:none" />
    <path
       id="path20"
       d="m 711.77734,806.69922 1.95703,0.14453 1.76563,0.38281 1.62109,0.61719 1.42969,0.90625 1.23828,1.14453 1.09766,1.33594 0.66797,1.23828 0.52343,1.33594 0.47657,1.48047 0.28906,1.52343 0.1875,1.71875 0.0977,1.76563 -0.14454,2.1914 -0.28515,2.00391 -0.47656,1.8125 -0.71485,1.62109 -0.90625,1.42969 -1.05078,1.23828 -1.04687,0.90625 -1.14454,0.76563 -1.24218,0.47656 -1.33203,0.42969 -1.4336,0.23828 -1.52344,0.0937 -1.85937,-0.14453 -1.71875,-0.33203 -1.57422,-0.57422 -1.38281,-0.76172 -1.23828,-1.04688 -1.05078,-1.33593 -0.8086,-1.19141 -0.62109,-1.38281 -0.47656,-1.4336 -0.33204,-1.62109 -0.1914,-1.71484 -0.0508,-1.85938 0.0976,-2.24219 0.28516,-2.05078 0.52344,-1.85937 0.71875,-1.66797 0.95312,-1.48047 1.14453,-1.28516 1,-0.8125 1.09766,-0.71484 1.23828,-0.57422 1.28906,-0.3789 1.38282,-0.23829 z m 0.0508,3.67187 -1.19531,0.0977 -1.09375,0.28516 -1.0039,0.42968 -0.85547,0.6211 -0.8125,0.80859 -0.66797,0.95313 -0.47656,0.90625 -0.38282,1.0039 -0.28515,1.04688 -0.23828,1.14453 -0.14063,1.1914 v 1.24219 l 0.0469,1.76172 0.23828,1.62109 0.3789,1.4336 0.52735,1.28515 0.71484,1.09766 0.85938,0.90625 0.57031,0.52344 0.66797,0.42969 0.71484,0.28515 0.76172,0.23828 0.8125,0.14453 h 0.85937 l 1.14454,-0.0469 1.09375,-0.28516 0.95703,-0.42968 0.90625,-0.6211 0.76172,-0.76172 0.71484,-1.0039 0.47656,-0.85547 0.38281,-0.95703 0.28516,-1.04688 0.23828,-1.09765 0.14453,-1.19141 0.0469,-1.28906 -0.0977,-1.85938 -0.23828,-1.66797 -0.42969,-1.48047 -0.57031,-1.33203 -0.76172,-1.09765 -0.85937,-0.95313 -0.6211,-0.42969 -0.61718,-0.38281 -0.66797,-0.28515 -0.71485,-0.19141 -0.76562,-0.14063 z m 0,0"
       style="fill:#ffff00;fill-opacity:0.72440898;fill-rule:nonzero;stroke:none" />
    <path
       id="path22"
       d="m 740.58203,810.89844 -1.33594,0.0937 -1.14453,0.14453 -1.05078,0.23828 -0.95312,0.33203 -0.8086,0.42969 -0.62109,0.52344 -0.66797,0.76562 -0.52344,0.85547 -0.38281,1.05078 -0.33203,1.23828 -0.14453,1.38281 -0.0469,1.48047 v 12.96875 h -4.0039 v -24.98828 h 3.66796 v 4.53125 L 733,810.80078 l 0.76172,-1.04687 0.76172,-0.85938 0.71875,-0.71484 0.76172,-0.57422 0.76171,-0.42969 0.33594,-0.14062 0.37891,-0.0977 0.38281,-0.0937 0.38281,-0.0469 0.37891,-0.0469 0.42969,-0.0508 0.14453,0.0508 h 0.47656 l 0.57031,0.0937 h 0.33594 z m 0,0"
       style="fill:#ffff00;fill-opacity:0.72440898;fill-rule:nonzero;stroke:none" />
    <path
       id="path24"
       d="m 753.21875,807.41406 v 3.2461 h -4.10156 v 17.64062 l 0.0469,0.42969 0.0977,0.38281 0.14062,0.28516 0.19141,0.23828 0.23828,0.14453 0.14453,0.0937 0.23828,0.0469 0.19141,0.0508 0.28516,0.0469 h 1.71484 l 0.28906,-0.0469 0.28516,-0.0508 0.23828,-0.0937 v 3.33985 l -0.62109,0.0937 -0.57032,0.0937 -0.57422,0.0508 -0.52343,0.0469 h -0.52344 l -0.42969,0.0469 -1.14453,-0.0937 -1.00391,-0.19141 -0.85546,-0.33593 -0.66797,-0.47657 -0.52735,-0.57031 -0.3789,-0.76562 -0.0977,-0.1875 -0.0937,-0.47657 -0.0469,-0.28906 v -19.45312 h -3.38672 v -3.2461 h 3.38672 v -6.86328 h 3.95703 v 6.86328 z m 0,0"
       style="fill:#ffff00;fill-opacity:0.72440898;fill-rule:nonzero;stroke:none" />
    <path
       id="path26"
       d="m 770.86328,807.41406 h 3.67188 v 3.53125 l 0.71484,-0.95312 0.76172,-0.8125 0.76172,-0.71485 0.85937,-0.57031 0.8125,-0.48047 0.90625,-0.33203 0.37891,-0.0937 0.47656,-0.0977 0.42969,-0.0469 0.52344,-0.0937 h 0.48046 l 0.57032,-0.0508 1.14453,0.0977 1.09765,0.19141 1,0.28516 0.85938,0.42968 0.80859,0.52344 0.71875,0.66797 0.14063,0.23828 0.1914,0.23828 0.38282,0.57032 0.1875,0.28906 0.1914,0.28515 0.71485,-0.8125 0.76562,-0.71484 0.71485,-0.61719 0.76171,-0.47656 0.76172,-0.42969 0.76563,-0.33593 0.42969,-0.0937 0.52343,-0.14454 0.47657,-0.0469 0.57421,-0.0937 h 0.57032 l 0.62109,-0.0508 1.52344,0.14453 1.38281,0.28516 1.19531,0.47656 1,0.66797 0.8086,0.85937 0.66797,1.04688 0.1914,0.52734 0.14453,0.57031 0.14063,0.52735 0.0977,0.61718 0.0937,1.24219 v 18.73828 h -4.0039 V 815.1875 l -0.0977,-1 -0.1875,-0.95313 -0.28906,-0.76562 -0.47656,-0.71484 -0.57032,-0.57032 -0.66796,-0.47656 -0.38282,-0.14453 -0.33203,-0.0937 -0.38281,-0.14453 -0.38281,-0.0469 -0.42578,-0.0469 -0.42969,-0.0508 -0.85938,0.0976 -0.76172,0.14453 -0.71484,0.28516 -0.71875,0.37891 -0.61719,0.52734 -0.57422,0.57031 -0.52343,0.66797 -0.42969,0.71485 -0.28516,0.71484 -0.23828,0.76562 -0.14453,0.8086 v 16.54687 h -4.00391 V 815.1875 l -0.0977,-1.09375 -0.23828,-1.00391 -0.33203,-0.85937 -0.52344,-0.66406 -0.66797,-0.57422 -0.76563,-0.42969 -0.33203,-0.0937 -0.28515,-0.0977 -0.33594,-0.0469 -0.33203,-0.0937 h -0.38281 l -0.33204,-0.0508 -0.85937,0.0976 -0.76172,0.14453 -0.71875,0.28516 -0.71484,0.37891 -0.61719,0.52734 -0.57422,0.57031 -0.52344,0.66797 -0.42968,0.71485 -0.28516,0.71484 -0.23828,0.76562 -0.14453,0.8086 v 16.54687 h -4.00391 z m 0,0"
       style="fill:#ffff00;fill-opacity:0.72440898;fill-rule:nonzero;stroke:none" />
    <path
       id="path28"
       d="m 831.66016,821.24609 h -18.40625 v 1 l 0.0976,0.90625 0.14063,0.85938 0.1914,0.76172 0.23828,0.66797 0.28516,0.57031 0.38281,0.57422 0.6211,0.90625 0.71484,0.76172 0.85938,0.57421 0.90234,0.47657 1.00391,0.33203 1.09765,0.14453 0.0937,0.0469 h 0.71485 l 1.52734,-0.0937 1.33594,-0.42968 1.1914,-0.71485 1,-0.95703 0.8125,-1.23828 0.66797,-1.57422 h 4.00391 l -0.42969,1.57422 -0.52344,1.42969 -0.71484,1.28906 -0.85938,1.09766 -1.05078,0.95312 -1.14453,0.8086 -0.90234,0.42968 -0.90625,0.38282 -0.95703,0.28515 -1.04688,0.23828 -1.05078,0.14453 -1.09375,0.0469 -1.8125,-0.14453 -1.62109,-0.33203 -1.48047,-0.52344 -1.33594,-0.71484 -1.23828,-0.95704 -1.05078,-1.1914 -0.85547,-1.19141 -0.71484,-1.38281 -0.57422,-1.52734 -0.38282,-1.6211 -0.23828,-1.76172 -0.0469,-1.91015 0.0469,-2 0.28907,-1.91016 0.47656,-1.76172 0.61719,-1.57422 0.8125,-1.48047 1.04687,-1.33593 1.05078,-1.04688 1.19141,-0.85937 1.33594,-0.66797 1.38281,-0.47656 1.52734,-0.28516 1.66797,-0.14453 1.47656,0.0977 1.38282,0.23829 1.28906,0.3789 1.23828,0.57422 1.14453,0.71484 1.09766,0.85938 0.52343,0.57031 0.47657,0.57422 0.42968,0.57031 0.38282,0.66797 0.33203,0.66797 0.33594,0.66797 0.28515,1 0.23828,1.09766 0.19141,1.24218 0.14453,1.42969 0.0937,1.52344 z m -18.3086,-3.24218 h 14.01953 v -0.19141 l 0.0469,-0.0977 -0.0977,-1 -0.14062,-1 -0.33594,-0.90625 -0.37891,-0.85937 -0.52734,-0.76172 -0.61719,-0.76563 -0.71484,-0.61718 -0.71875,-0.52735 -0.8086,-0.3789 -0.8125,-0.28907 -0.85546,-0.14062 -0.90625,-0.0977 -1.14454,0.0977 -1.05078,0.23828 -0.95312,0.37891 -0.85938,0.52734 -0.80859,0.66797 -0.66797,0.80859 -0.47656,0.71485 -0.38281,0.71484 -0.28516,0.8125 -0.28516,0.85938 -0.14453,0.90625 z m 0,0"
       style="fill:#ffff00;fill-opacity:0.72440898;fill-rule:nonzero;stroke:none" />
    <path
       id="path30"
       d="m 845.77734,807.41406 v 3.2461 h -4.10156 v 17.64062 l 0.0469,0.42969 0.0976,0.38281 0.14063,0.28516 0.1914,0.23828 0.23828,0.14453 0.14454,0.0937 0.23828,0.0469 0.1875,0.0508 0.28906,0.0469 h 1.71484 l 0.28516,-0.0469 0.28906,-0.0508 0.23828,-0.0937 v 3.33985 l -0.62109,0.0937 -0.57031,0.0937 -0.57422,0.0508 -0.52344,0.0469 h -0.52734 l -0.42578,0.0469 -1.14454,-0.0937 -1.0039,-0.19141 -0.85547,-0.33593 -0.66797,-0.47657 -0.52734,-0.57031 -0.37891,-0.76562 -0.0977,-0.1875 -0.0937,-0.47657 -0.0469,-0.28906 v -19.45312 h -3.38672 v -3.2461 h 3.38672 v -6.86328 h 3.95703 v 6.86328 z m 0,0"
       style="fill:#ffff00;fill-opacity:0.72440898;fill-rule:nonzero;stroke:none" />
    <path
       id="path32"
       d="m 859.22266,808.32031 h -7.48438 v -3.0039 l 1.28516,-0.14063 1.14453,-0.19141 1.0039,-0.23828 0.85547,-0.1914 0.71485,-0.23828 0.62109,-0.28516 0.47656,-0.28906 0.42969,-0.33203 0.38281,-0.38282 0.37891,-0.47656 0.33594,-0.52344 0.33203,-0.62109 0.14453,-0.33203 0.14453,-0.38281 0.14063,-0.42969 0.1914,-0.52344 0.14453,-0.52344 0.1875,-0.62109 h 2.76953 v 33.80859 h -4.19921 z m 0,0"
       style="fill:#ffff00;fill-opacity:0.72440898;fill-rule:nonzero;stroke:none" />
    <path
       id="path34"
       d="m 649.31641,264.96484 0.14453,0.85938 0.1914,0.76172 0.28516,0.66797 0.28516,0.62109 0.42968,0.47656 0.47657,0.37891 0.52343,0.33594 0.6211,0.28515 0.66797,0.23828 0.76171,0.14453 0.8125,0.0937 h 0.90625 l 1.04688,-0.0469 1.00391,-0.14453 0.90625,-0.23828 0.76171,-0.33203 0.66797,-0.42969 0.57032,-0.52344 0.24218,-0.28906 0.23828,-0.33203 0.14063,-0.38282 0.14453,-0.3789 0.0469,-0.38281 0.0469,-0.42969 -0.0937,-0.57031 -0.14453,-0.52735 -0.23828,-0.47656 -0.38281,-0.42969 -0.47657,-0.3789 -0.52343,-0.38282 -0.28516,-0.0937 -0.28516,-0.14453 -0.33593,-0.14453 -0.33204,-0.0937 -0.38281,-0.0977 -0.38281,-0.14062 -3.71875,-0.90625 -1.57422,-0.38281 -1.38281,-0.47657 -1.19141,-0.47656 -1.04687,-0.52344 -0.8125,-0.57421 -0.6211,-0.66797 -0.42968,-0.52344 -0.28516,-0.57031 -0.28516,-0.66797 -0.14453,-0.71485 -0.14062,-0.76562 v -0.85547 l 0.0469,-1.19531 0.23828,-1.09375 0.42969,-1.05078 0.57031,-0.90625 0.76563,-0.8086 0.90625,-0.76562 0.90625,-0.52344 1,-0.42969 1.04687,-0.38281 1.14453,-0.23828 1.19532,-0.14063 1.33203,-0.0977 1.8125,0.14453 1.67187,0.28516 1.42969,0.47656 1.23828,0.71484 1.00391,0.90625 0.85547,1.05078 0.28906,0.6211 0.28516,0.61718 0.1914,0.66797 0.14063,0.71485 0.0976,0.71484 0.0469,0.76563 h -4.19531 l -0.14454,-1.05079 -0.33203,-0.90625 -0.57422,-0.76171 -0.76171,-0.52344 -0.95313,-0.42969 -1.14453,-0.23828 h -0.38281 l -0.19141,-0.0469 h -0.38281 l -0.14063,-0.0508 -1.09765,0.0977 -0.95313,0.14062 -0.8125,0.23829 -0.71484,0.38281 -0.61719,0.42969 -0.47656,0.52343 -0.24219,0.33594 -0.14062,0.28516 -0.0977,0.33203 -0.0937,0.33594 -0.0469,0.33203 v 0.33593 l 0.0469,0.61719 0.19141,0.52735 0.33203,0.52343 0.42968,0.42969 0.57422,0.42969 0.76172,0.33203 0.28516,0.14453 0.38281,0.0937 0.33203,0.14453 0.42969,0.0937 0.38281,0.14453 0.47656,0.0937 3.81641,0.90625 1.52344,0.42969 1.33594,0.52344 1.14453,0.57422 0.95312,0.66797 0.76172,0.71484 0.57422,0.80859 0.23828,0.48047 0.19141,0.52344 0.14062,0.47656 0.0977,0.57031 0.0469,0.57422 0.0469,0.6211 -0.0937,1.23828 -0.28516,1.14453 -0.42969,1.04687 -0.62109,0.95704 -0.76172,0.85546 -0.95312,0.76563 -1.00391,0.61719 -1.04687,0.42968 -1.14454,0.38282 -1.24218,0.23828 -1.33594,0.14453 -1.38281,0.0937 -2.52735,-0.19141 -2.14453,-0.47656 -1.76562,-0.76172 -1.42969,-1.14453 -1.04688,-1.48047 -0.66796,-1.8125 -0.14454,-0.3789 -0.0937,-0.42969 -0.0508,-0.42969 -0.0469,-0.42969 -0.0469,-0.47656 v -0.52344 z m 0,0"
       style="fill:#ffff00;fill-opacity:0.72440898;fill-rule:nonzero;stroke:none" />
    <path
       id="path36"
       d="m 686.55859,255.09375 -0.0937,-1.05078 -0.23828,-0.90625 -0.38281,-0.8086 -0.57031,-0.66796 -0.71485,-0.57422 -0.8125,-0.47657 -0.3789,-0.0937 -0.38282,-0.14453 -0.38281,-0.0469 -0.42969,-0.0937 h -0.3789 l -0.38281,-0.0508 -1.09766,0.0977 -1,0.23828 -0.90625,0.38282 -0.85938,0.52343 -0.76171,0.66797 -0.6211,0.8086 -0.47656,0.8125 -0.38281,0.85937 -0.28516,0.90625 -0.23828,1 -0.14063,1.04688 v 14.8789 h -3.96093 v -34.76172 h 3.96093 v 13.20704 l 0.71485,-0.85547 0.76172,-0.8125 0.76172,-0.66797 0.76562,-0.57031 0.76172,-0.42969 0.80859,-0.33594 0.48047,-0.14062 0.52344,-0.0977 0.57031,-0.0937 0.57422,-0.0469 0.62109,-0.0469 0.66407,-0.0508 1.38281,0.0977 1.28906,0.23829 1.14453,0.33203 1,0.52734 0.90625,0.66406 0.76563,0.76563 0.3789,0.61719 0.33594,0.62109 0.28516,0.66797 0.1914,0.71484 0.14063,0.76172 0.0508,0.8125 v 18.88281 h -3.96094 z m 0,0"
       style="fill:#ffff00;fill-opacity:0.72440898;fill-rule:nonzero;stroke:none" />
    <path
       id="path38"
       d="m 706.77734,246.69922 1.95703,0.14453 1.76563,0.38281 1.62109,0.61719 1.42969,0.90625 1.23828,1.14453 1.09766,1.33594 0.66797,1.23828 0.52343,1.33594 0.47657,1.48047 0.28906,1.52343 0.1875,1.71875 0.0977,1.76563 -0.14454,2.1914 -0.28515,2.00391 -0.47656,1.8125 -0.71485,1.62109 -0.90625,1.42969 -1.05078,1.23828 -1.04687,0.90625 -1.14454,0.76563 -1.24218,0.47656 -1.33203,0.42969 -1.4336,0.23828 -1.52344,0.0937 -1.85937,-0.14453 -1.71875,-0.33203 -1.57422,-0.57422 -1.38281,-0.76172 -1.23828,-1.04688 -1.05078,-1.33593 -0.8086,-1.19141 -0.62109,-1.38281 -0.47656,-1.4336 -0.33204,-1.62109 -0.1914,-1.71484 -0.0508,-1.85938 0.0976,-2.24219 0.28516,-2.05078 0.52344,-1.85937 0.71875,-1.66797 0.95312,-1.48047 1.14453,-1.28516 1,-0.8125 1.09766,-0.71484 1.23828,-0.57422 1.28906,-0.3789 1.38282,-0.23829 z m 0.0508,3.67187 -1.19531,0.0977 -1.09375,0.28516 -1.0039,0.42968 -0.85547,0.6211 -0.8125,0.80859 -0.66797,0.95313 -0.47656,0.90625 -0.38282,1.0039 -0.28515,1.04688 -0.23828,1.14453 -0.14063,1.1914 v 1.24219 l 0.0469,1.76172 0.23828,1.62109 0.3789,1.4336 0.52735,1.28515 0.71484,1.09766 0.85938,0.90625 0.57031,0.52344 0.66797,0.42969 0.71484,0.28515 0.76172,0.23828 0.8125,0.14453 h 0.85937 l 1.14454,-0.0469 1.09375,-0.28516 0.95703,-0.42968 0.90625,-0.6211 0.76172,-0.76172 0.71484,-1.0039 0.47656,-0.85547 0.38281,-0.95703 0.28516,-1.04688 0.23828,-1.09765 0.14453,-1.19141 0.0469,-1.28906 -0.0977,-1.85938 -0.23828,-1.66797 -0.42969,-1.48047 -0.57031,-1.33203 -0.76172,-1.09765 -0.85937,-0.95313 -0.6211,-0.42969 -0.61718,-0.38281 -0.66797,-0.28515 -0.71485,-0.19141 -0.76562,-0.14063 z m 0,0"
       style="fill:#ffff00;fill-opacity:0.72440898;fill-rule:nonzero;stroke:none" />
    <path
       id="path40"
       d="m 735.58203,250.89844 -1.33594,0.0937 -1.14453,0.14453 -1.05078,0.23828 -0.95312,0.33203 -0.8086,0.42969 -0.62109,0.52344 -0.66797,0.76562 -0.52344,0.85547 -0.38281,1.05078 -0.33203,1.23828 -0.14453,1.38281 -0.0469,1.48047 v 12.96875 h -4.0039 v -24.98828 h 3.66796 v 4.53125 L 728,250.80078 l 0.76172,-1.04687 0.76172,-0.85938 0.71875,-0.71484 0.76172,-0.57422 0.76171,-0.42969 0.33594,-0.14062 0.37891,-0.0977 0.38281,-0.0937 0.38281,-0.0469 0.37891,-0.0469 0.42969,-0.0508 0.14453,0.0508 h 0.47656 l 0.57031,0.0937 h 0.33594 z m 0,0"
       style="fill:#ffff00;fill-opacity:0.72440898;fill-rule:nonzero;stroke:none" />
    <path
       id="path42"
       d="m 748.21875,247.41406 v 3.2461 h -4.10156 v 17.64062 l 0.0469,0.42969 0.0977,0.38281 0.14062,0.28516 0.19141,0.23828 0.23828,0.14453 0.14453,0.0937 0.23828,0.0469 0.19141,0.0508 0.28516,0.0469 h 1.71484 l 0.28906,-0.0469 0.28516,-0.0508 0.23828,-0.0937 v 3.33985 l -0.62109,0.0937 -0.57032,0.0937 -0.57422,0.0508 -0.52343,0.0469 h -0.52344 l -0.42969,0.0469 -1.14453,-0.0937 -1.00391,-0.19141 -0.85546,-0.33593 -0.66797,-0.47657 -0.52735,-0.57031 -0.3789,-0.76562 -0.0977,-0.1875 -0.0937,-0.47657 -0.0469,-0.28906 v -19.45312 h -3.38672 v -3.2461 h 3.38672 v -6.86328 h 3.95703 v 6.86328 z m 0,0"
       style="fill:#ffff00;fill-opacity:0.72440898;fill-rule:nonzero;stroke:none" />
    <path
       id="path44"
       d="m 765.86328,247.41406 h 3.67188 v 3.53125 l 0.71484,-0.95312 0.76172,-0.8125 0.76172,-0.71485 0.85937,-0.57031 0.8125,-0.48047 0.90625,-0.33203 0.37891,-0.0937 0.47656,-0.0977 0.42969,-0.0469 0.52344,-0.0937 h 0.48046 l 0.57032,-0.0508 1.14453,0.0977 1.09765,0.19141 1,0.28516 0.85938,0.42968 0.80859,0.52344 0.71875,0.66797 0.14063,0.23828 0.1914,0.23828 0.38282,0.57032 0.1875,0.28906 0.1914,0.28515 0.71485,-0.8125 0.76562,-0.71484 0.71485,-0.61719 0.76171,-0.47656 0.76172,-0.42969 0.76563,-0.33593 0.42969,-0.0937 0.52343,-0.14454 0.47657,-0.0469 0.57421,-0.0937 h 0.57032 l 0.62109,-0.0508 1.52344,0.14453 1.38281,0.28516 1.19531,0.47656 1,0.66797 0.8086,0.85937 0.66797,1.04688 0.1914,0.52734 0.14453,0.57031 0.14063,0.52735 0.0977,0.61718 0.0937,1.24219 v 18.73828 h -4.0039 V 255.1875 l -0.0977,-1 -0.1875,-0.95313 -0.28906,-0.76562 -0.47656,-0.71484 -0.57032,-0.57032 -0.66796,-0.47656 -0.38282,-0.14453 -0.33203,-0.0937 -0.38281,-0.14453 -0.38281,-0.0469 -0.42578,-0.0469 -0.42969,-0.0508 -0.85938,0.0977 -0.76172,0.14453 -0.71484,0.28516 -0.71875,0.37891 -0.61719,0.52734 -0.57422,0.57031 -0.52343,0.66797 -0.42969,0.71485 -0.28516,0.71484 -0.23828,0.76562 -0.14453,0.8086 v 16.54687 h -4.00391 V 255.1875 l -0.0977,-1.09375 -0.23828,-1.00391 -0.33203,-0.85937 -0.52344,-0.66406 -0.66797,-0.57422 -0.76563,-0.42969 -0.33203,-0.0937 -0.28515,-0.0977 -0.33594,-0.0469 -0.33203,-0.0937 h -0.38281 l -0.33204,-0.0508 -0.85937,0.0977 -0.76172,0.14453 -0.71875,0.28516 -0.71484,0.37891 -0.61719,0.52734 -0.57422,0.57031 -0.52344,0.66797 -0.42968,0.71485 -0.28516,0.71484 -0.23828,0.76562 -0.14453,0.8086 v 16.54687 h -4.00391 z m 0,0"
       style="fill:#ffff00;fill-opacity:0.72440898;fill-rule:nonzero;stroke:none" />
    <path
       id="path46"
       d="m 826.66016,261.24609 h -18.40625 v 1 l 0.0976,0.90625 0.14063,0.85938 0.1914,0.76172 0.23828,0.66797 0.28516,0.57031 0.38281,0.57422 0.6211,0.90625 0.71484,0.76172 0.85938,0.57421 0.90234,0.47657 1.00391,0.33203 1.09765,0.14453 0.0937,0.0469 h 0.71485 l 1.52734,-0.0937 1.33594,-0.42968 1.1914,-0.71485 1,-0.95703 0.8125,-1.23828 0.66797,-1.57422 h 4.00391 l -0.42969,1.57422 -0.52344,1.42969 -0.71484,1.28906 -0.85938,1.09766 -1.05078,0.95312 -1.14453,0.8086 -0.90234,0.42968 -0.90625,0.38282 -0.95703,0.28515 -1.04688,0.23828 -1.05078,0.14453 -1.09375,0.0469 -1.8125,-0.14453 -1.62109,-0.33203 -1.48047,-0.52344 -1.33594,-0.71484 -1.23828,-0.95704 -1.05078,-1.1914 -0.85547,-1.19141 -0.71484,-1.38281 -0.57422,-1.52734 -0.38282,-1.6211 -0.23828,-1.76172 -0.0469,-1.91015 0.0469,-2 0.28907,-1.91016 0.47656,-1.76172 0.61719,-1.57422 0.8125,-1.48047 1.04687,-1.33593 1.05078,-1.04688 1.19141,-0.85937 1.33594,-0.66797 1.38281,-0.47656 1.52734,-0.28516 1.66797,-0.14453 1.47656,0.0977 1.38282,0.23829 1.28906,0.3789 1.23828,0.57422 1.14453,0.71484 1.09766,0.85938 0.52343,0.57031 0.47657,0.57422 0.42968,0.57031 0.38282,0.66797 0.33203,0.66797 0.33594,0.66797 0.28515,1 0.23828,1.09766 0.19141,1.24218 0.14453,1.42969 0.0937,1.52344 z m -18.3086,-3.24218 h 14.01953 v -0.19141 l 0.0469,-0.0977 -0.0977,-1 -0.14062,-1 -0.33594,-0.90625 -0.37891,-0.85937 -0.52734,-0.76172 -0.61719,-0.76563 -0.71484,-0.61718 -0.71875,-0.52735 -0.8086,-0.3789 -0.8125,-0.28907 -0.85546,-0.14062 -0.90625,-0.0977 -1.14454,0.0977 -1.05078,0.23828 -0.95312,0.37891 -0.85938,0.52734 -0.80859,0.66797 -0.66797,0.80859 -0.47656,0.71485 -0.38281,0.71484 -0.28516,0.8125 -0.28516,0.85938 -0.14453,0.90625 z m 0,0"
       style="fill:#ffff00;fill-opacity:0.72440898;fill-rule:nonzero;stroke:none" />
    <path
       id="path48"
       d="m 840.77734,247.41406 v 3.2461 h -4.10156 v 17.64062 l 0.0469,0.42969 0.0976,0.38281 0.14063,0.28516 0.1914,0.23828 0.23828,0.14453 0.14454,0.0937 0.23828,0.0469 0.1875,0.0508 0.28906,0.0469 h 1.71484 l 0.28516,-0.0469 0.28906,-0.0508 0.23828,-0.0937 v 3.33985 l -0.62109,0.0937 -0.57031,0.0937 -0.57422,0.0508 -0.52344,0.0469 h -0.52734 l -0.42578,0.0469 -1.14454,-0.0937 -1.0039,-0.19141 -0.85547,-0.33593 -0.66797,-0.47657 -0.52734,-0.57031 -0.37891,-0.76562 -0.0977,-0.1875 -0.0937,-0.47657 -0.0469,-0.28906 v -19.45312 h -3.38672 v -3.2461 h 3.38672 v -6.86328 h 3.95703 v 6.86328 z m 0,0"
       style="fill:#ffff00;fill-opacity:0.72440898;fill-rule:nonzero;stroke:none" />
    <path
       id="path50"
       d="m 854.22266,248.32031 h -7.48438 v -3.0039 l 1.28516,-0.14063 1.14453,-0.19141 1.0039,-0.23828 0.85547,-0.1914 0.71485,-0.23828 0.62109,-0.28516 0.47656,-0.28906 0.42969,-0.33203 0.38281,-0.38282 0.37891,-0.47656 0.33594,-0.52344 0.33203,-0.62109 0.14453,-0.33203 0.14453,-0.38281 0.14063,-0.42969 0.1914,-0.52344 0.14453,-0.52344 0.1875,-0.62109 h 2.76953 v 33.80859 h -4.19921 z m 0,0"
       style="fill:#ffff00;fill-opacity:0.72440898;fill-rule:nonzero;stroke:none" />
    <path
       id="path52"
       transform="matrix(1,0,0,-1,0.5,1079.5)"
       d="m 756,259 v 9 m -5,-4 h 9 m -10,555 v 9 m -5,-4 h 9"
       style="fill:none;stroke:#ffff00;stroke-width:2;stroke-linecap:butt;stroke-linejoin:miter;stroke-miterlimit:10;stroke-opacity:0.72440898" />
  </g>
</svg>
