<?xml version="1.0" encoding="UTF-8" standalone="no"?>
<svg
   xmlns:dc="http://purl.org/dc/elements/1.1/"
   xmlns:cc="http://creativecommons.org/ns#"
   xmlns:rdf="http://www.w3.org/1999/02/22-rdf-syntax-ns#"
   xmlns:svg="http://www.w3.org/2000/svg"
   xmlns="http://www.w3.org/2000/svg"
   id="svg50"
   version="1.2"
   viewBox="0 0 1371 1390.1133"
   height="1390.1133pt"
   width="1371pt">
  <metadata
     id="metadata54">
    <rdf:RDF>
      <cc:Work
         rdf:about="">
        <dc:format>image/svg+xml</dc:format>
        <dc:type
           rdf:resource="http://purl.org/dc/dcmitype/StillImage" />
      </cc:Work>
    </rdf:RDF>
  </metadata>
  <defs
     id="defs11">
    <clipPath
       id="clip1">
      <path
         id="path2"
         d="M 18.5,2.5 H 1898 V 1059 H 18.5 Z m 0,0" />
    </clipPath>
    <clipPath
       id="clip2">
      <path
         id="path5"
         d="m 1205.5,98.5 h 441 v 61 h -441 z m 0,490 h 441 v 61 h -441 z m 37,160 h 404 v 62 h -404 z m 0,62 h 103 v 103 h -103 z m 0,103 h 404 v 62 h -404 z m 0,0" />
    </clipPath>
    <clipPath
       id="clip3">
      <path
         id="path8"
         d="m 275.5,98.5 h 1371 v 99 h -1371 z m 988,99 h 169 v 28 h -169 z m -988,98 h 918 v 29 h -918 z m 1227,0 h 144 v 29 h -144 z m -1227,29 h 1371 v 99 h -1371 z m 1227,99 h 144 v 29 h -144 z m -1227,0 h 918 v 29 h -918 z m 988,99 h 169 v 29 h -169 z m -988,29 h 1371 v 98 h -1371 z m 0,197 h 1371 v 227 h -1371 z m 0,0" />
    </clipPath>
  </defs>
  <g
     transform="translate(-275.5,122.61328)"
     id="surface224">
    <g
       style="clip-rule:nonzero"
       id="g13"
       clip-path="url(#clip1)" />
    <g
       style="clip-rule:nonzero"
       id="g17"
       clip-path="url(#clip2)">
      <rect
         id="rect15"
         style="fill:#eb0000;fill-opacity:0.94488196;stroke:none"
         height="1059"
         width="1898"
         y="0"
         x="0" />
    </g>
    <g
       style="clip-rule:nonzero"
       id="g21"
       clip-path="url(#clip3)">
      <rect
         id="rect19"
         style="fill:#ff78f3;fill-opacity:0.62992099;stroke:none"
         height="1059"
         width="1898"
         y="0"
         x="0" />
    </g>
    <path
       id="path23"
       d="m 467.12109,640.92578 -20.1875,-1.44141 -18.74218,-3.60546 -17.30079,-6.48829 -17.30078,-8.65234 -15.14062,-10.8125 -14.41797,-14.41797 -15.13672,-17.30078 -12.97656,-20.18359 -9.375,-22.34766 -7.92969,-23.79297 -5.04297,-25.94922 -2.16406,-28.83593 v -15.14063 l 0.71875,-29.55469 3.60547,-27.39453 6.48828,-26.67578 8.65234,-23.78906 11.53516,-22.34766 13.69531,-20.18359 14.41797,-15.85938 15.85938,-13.69922 18.02343,-10.8125 18.74219,-7.92968 20.1875,-5.04688 22.34766,-2.88281 h 6.48828 l 22.34765,2.16016 20.90625,5.04687 19.46094,8.65234 18.02344,12.25391 16.58203,15.14063 15.85938,18.74218 V 298.5 l 0.71875,0.71875 v 0.72266 l 0.72265,0.71875 v 0.72265 h 0.72266 v -54.78906 h 55.50781 v 315.75391 l -0.72266,32.4414 -2.16015,28.83594 -3.60547,25.23047 -4.32422,23.0664 -6.48828,20.1875 -7.21094,18.02344 -12.2539,18.74219 -15.14063,15.85937 -18.01953,13.69532 -20.90625,10.09375 -23.79297,7.21093 -25.94922,4.32422 h -9.375 l -5.04297,0.71875 h -9.375 l -4.32422,0.72266 -27.39453,-1.44141 -24.50781,-4.32422 -22.34766,-6.48828 -19.46484,-9.37109 -17.30078,-12.25781 -13.69922,-14.41797 -7.20703,-9.3711 -5.76953,-10.09375 -5.04688,-10.8125 -3.60156,-10.8125 -2.88672,-12.25781 -1.4414,-12.2539 h 61.27734 l 3.60547,15.14062 7.20703,13.69531 9.37109,11.53516 12.25782,9.37109 15.13671,6.48828 18.02344,5.04688 h 3.60547 l 4.32422,0.71875 4.32422,0.72266 h 8.65234 l 5.04688,0.72265 20.90625,-1.44531 18.74218,-4.32422 15.85938,-5.76562 13.69922,-9.3711 10.8125,-11.53515 9.37109,-13.69922 4.32422,-11.53125 4.32813,-12.25782 2.88281,-15.13671 2.16015,-15.85938 1.44532,-17.30469 0.71875,-20.18359 V 573.16016 L 569.48828,589.01953 557.23047,602.71875 544.97656,614.25 532,623.625 l -12.97656,6.48828 -12.97657,5.76563 -12.97656,2.88281 -6.48437,0.72265 -6.48828,0.71875 h -6.48829 z m 11.53125,-349.63672 -17.30078,1.44141 -15.85937,4.32812 -14.41797,6.48438 -12.97656,9.375 -11.53125,12.2539 -10.09375,14.41797 -7.21094,13.69532 -5.76563,14.41796 -4.32422,15.86329 -2.88671,17.30078 -2.16016,18.01953 v 19.46484 l 0.71875,27.39453 3.60547,24.51172 5.76562,22.34766 8.65235,19.46484 10.8125,16.57813 12.97656,13.69922 8.65234,7.20703 9.3711,5.76953 10.09375,4.32422 10.8125,3.60547 11.53515,2.16015 H 479.375 l 17.30078,-0.71875 15.85938,-4.32422 14.41796,-7.21093 12.25782,-9.3711 11.53125,-12.2539 10.09375,-15.85938 5.76953,-12.25781 5.04297,-14.41797 4.32812,-15.13672 2.88281,-16.58203 2.16407,-17.30078 0.71875,-19.46485 -1.44141,-28.83593 -3.60547,-26.67188 -6.48828,-23.07031 -8.64844,-20.18359 -11.53515,-16.58204 -13.69922,-14.41796 -8.64844,-5.76563 -8.65234,-5.04687 -9.3711,-3.60547 -10.09375,-2.88282 -10.08984,-1.4414 z m 0,0"
       style="fill:#ffff00;fill-opacity:0.72440898;fill-rule:nonzero;stroke:none" />
    <path
       id="path25"
       d="m 741.0625,246.59375 h 55.50781 v 63.4375 l 10.8125,-15.85938 11.53516,-14.41796 12.2539,-12.25391 12.97657,-10.09375 13.69922,-7.92969 14.41796,-6.48828 7.20704,-2.16016 7.92968,-1.4414 7.92969,-1.44531 8.65234,-0.71875 8.64844,-0.72266 9.375,-0.71875 20.1836,1.44141 18.74218,2.88281 16.58203,5.04687 15.85938,7.20703 12.9766,9.375 12.2539,11.53125 6.4883,9.375 5.7695,10.08985 4.3242,10.8125 3.6055,10.8164 2.1601,12.25391 0.7227,12.25391 V 624.34375 H 981.83984 V 362.66016 l -1.4414,-12.97657 -2.16407,-12.25781 -5.04296,-11.53125 -5.76954,-9.375 -8.64843,-8.64844 -9.3711,-7.92968 -6.48828,-3.60547 -7.21094,-2.88282 -7.20703,-2.16406 -7.92968,-1.4414 -7.9336,-0.72266 -8.64844,-0.71875 -16.58203,1.44141 -15.13672,3.60546 -13.69921,5.76563 -12.97657,7.92969 -11.53125,10.09375 -9.375,12.2539 -7.20703,12.25782 -5.76953,12.97656 -4.32422,13.69531 -3.60547,15.14063 -2.16015,15.85937 V 624.34375 H 741.0625 Z m 0,0"
       style="fill:#ffff00;fill-opacity:0.72440898;fill-rule:nonzero;stroke:none" />
    <path
       id="path27"
       d="M 1447.5391,98.808594 V 624.34375 h -53.3438 v -49.74219 l -12.2578,15.85938 -12.2539,13.69922 -13.6953,11.53515 -13.6992,8.64844 -14.418,7.21094 -15.1367,5.04297 -6.4883,0.72265 -5.7695,1.44141 -6.4883,0.72265 -6.4883,0.71875 h -7.207 l -6.4883,0.72266 -25.9531,-2.16406 -23.0664,-5.04688 -21.6289,-7.92968 -20.1836,-11.53516 -18.0235,-14.41797 -15.1406,-18.74219 -12.2539,-18.74218 -10.0938,-21.62891 -7.9296,-23.06641 -5.7657,-25.23047 -3.6054,-27.39453 -0.7188,-30.27734 0.7188,-29.55859 4.3242,-28.11329 6.4883,-25.95312 9.375,-23.78906 11.5312,-21.62891 15.1406,-19.46484 15.1368,-15.13672 17.3046,-12.97656 18.0196,-9.3711 20.1875,-7.21094 20.9062,-4.32421 23.0664,-1.44141 23.7891,2.16016 21.6289,4.32812 19.4648,7.20703 18.0196,10.81641 15.8633,13.69531 14.4179,15.85938 2.8828,4.32421 V 98.808594 Z m -165.8047,193.203126 -17.3008,1.4414 -15.1406,3.60547 -14.418,6.48438 -12.9766,7.93359 -12.2539,11.53125 -10.0937,12.97656 -8.6485,14.41797 -6.4882,15.14063 -5.7696,16.57812 -3.6015,17.30469 -2.1641,18.74219 -0.7226,20.18359 0.7226,24.51172 2.8828,21.625 5.0469,20.1875 7.207,18.02344 9.375,16.57812 12.2539,13.69922 10.0938,10.08985 10.8125,7.92968 11.5351,5.76953 12.9766,5.04688 12.9766,2.16016 14.4179,0.72265 15.8594,-0.72265 15.1367,-3.60157 13.6992,-6.48828 12.254,-7.92969 11.5351,-11.53515 10.8125,-13.69922 7.9297,-12.97656 6.4883,-15.13672 5.0469,-16.58203 3.6054,-17.30078 2.1602,-18.74219 0.7226,-20.1875 -1.4414,-25.23047 -2.8867,-23.06641 -5.7656,-20.90625 -7.207,-18.74609 -10.0938,-16.57813 -11.5352,-15.14062 -9.371,-7.92969 -10.0938,-7.20703 -10.8125,-5.76953 -11.5352,-3.60547 -12.2539,-2.16016 z m 0,0"
       style="fill:#ffff00;fill-opacity:0.72440898;fill-rule:nonzero;stroke:none" />
    <path
       id="path29"
       d="m 465.12109,1126.9258 -20.1875,-1.4414 -18.74218,-3.6055 -17.30079,-6.4883 -17.30078,-8.6523 -15.14062,-10.8125 -14.41797,-14.418 -15.13672,-17.3008 -12.97656,-20.1836 -9.375,-22.3476 -7.92969,-23.79299 -5.04297,-25.94922 -2.16406,-28.83593 v -15.14063 l 0.71875,-29.55469 3.60547,-27.39453 6.48828,-26.67578 8.65234,-23.78906 11.53516,-22.34766 13.69531,-20.18359 14.41797,-15.85938 15.85938,-13.69922 18.02343,-10.8125 18.74219,-7.92968 20.1875,-5.04688 22.34766,-2.88281 h 6.48828 l 22.34765,2.16016 20.90625,5.04687 19.46094,8.65234 18.02344,12.25391 16.58203,15.14063 15.85938,18.74218 V 784.5 l 0.71875,0.71875 v 0.72266 l 0.72265,0.71875 v 0.72265 h 0.72266 v -54.78906 h 55.50781 v 315.75395 l -0.72266,32.4414 -2.16015,28.8359 -3.60547,25.2305 -4.32422,23.0664 -6.48828,20.1875 -7.21094,18.0234 -12.2539,18.7422 -15.14063,15.8594 -18.01953,13.6953 -20.90625,10.0937 -23.79297,7.211 -25.94922,4.3242 h -9.375 l -5.04297,0.7187 h -9.375 l -4.32422,0.7227 -27.39453,-1.4414 -24.50781,-4.3242 -22.34766,-6.4883 -19.46484,-9.3711 -17.30078,-12.2578 -13.69922,-14.418 -7.20703,-9.3711 -5.76953,-10.0937 -5.04688,-10.8125 -3.60156,-10.8125 -2.88672,-12.2578 -1.4414,-12.2539 h 61.27734 l 3.60547,15.1406 7.20703,13.6953 9.37109,11.5352 12.25782,9.371 15.13671,6.4883 18.02344,5.0469 h 3.60547 l 4.32422,0.7188 4.32422,0.7226 h 8.65234 l 5.04688,0.7227 20.90625,-1.4453 18.74218,-4.3243 15.85938,-5.7656 13.69922,-9.3711 10.8125,-11.5351 9.37109,-13.6993 4.32422,-11.5312 4.32813,-12.2578 2.88281,-15.1367 2.16015,-15.8594 1.44532,-17.3047 0.71875,-20.1836 v -19.4648 l -12.25391,15.8593 -12.25781,13.6993 -12.25391,11.5312 -12.97656,9.375 -12.97656,6.4883 -12.97657,5.7656 -12.97656,2.8828 -6.48437,0.7227 -6.48828,0.7187 h -6.48829 z m 11.53125,-349.63674 -17.30078,1.44141 -15.85937,4.32812 -14.41797,6.48438 -12.97656,9.375 -11.53125,12.2539 -10.09375,14.41797 -7.21094,13.69532 -5.76563,14.41796 -4.32422,15.86329 -2.88671,17.30078 -2.16016,18.01953 v 19.46484 l 0.71875,27.39453 3.60547,24.51172 5.76562,22.34766 8.65235,19.46483 10.8125,16.5781 12.97656,13.6993 8.65234,7.207 9.3711,5.7695 10.09375,4.3242 10.8125,3.6055 11.53515,2.1602 H 477.375 l 17.30078,-0.7188 15.85938,-4.3242 14.41796,-7.2109 12.25782,-9.3711 11.53125,-12.2539 10.09375,-15.8594 5.76953,-12.2578 5.04297,-14.418 4.32812,-15.13672 2.88281,-16.58203 2.16407,-17.30078 0.71875,-19.46485 -1.44141,-28.83593 -3.60547,-26.67188 -6.48828,-23.07031 -8.64844,-20.18359 -11.53515,-16.58204 -13.69922,-14.41796 -8.64844,-5.76563 -8.65234,-5.04687 -9.3711,-3.60547 -10.09375,-2.88282 -10.08984,-1.4414 z m 0,0"
       style="fill:#ffff00;fill-opacity:0.72440898;fill-rule:nonzero;stroke:none" />
    <path
       id="path31"
       d="m 739.0625,732.59375 h 55.50781 v 63.4375 l 10.8125,-15.85938 11.53516,-14.41796 12.2539,-12.25391 12.97657,-10.09375 13.69922,-7.92969 14.41796,-6.48828 7.20704,-2.16016 7.92968,-1.4414 7.92969,-1.44531 8.65234,-0.71875 8.64844,-0.72266 9.375,-0.71875 20.1836,1.44141 18.74218,2.88281 16.58203,5.04687 15.85938,7.20703 12.9766,9.375 12.2539,11.53125 6.4882,9.375 5.7696,10.08985 4.3242,10.8125 3.6055,10.8164 2.1601,12.25391 0.7227,12.25391 V 1110.3438 H 979.83984 V 848.66016 l -1.4414,-12.97657 -2.16407,-12.25781 -5.04296,-11.53125 -5.76954,-9.375 -8.64843,-8.64844 -9.3711,-7.92968 -6.48828,-3.60547 -7.21094,-2.88282 -7.20703,-2.16406 -7.92968,-1.4414 -7.9336,-0.72266 -8.64844,-0.71875 -16.58203,1.44141 -15.13672,3.60546 -13.69921,5.76563 -12.97657,7.92969 -11.53125,10.09375 -9.375,12.2539 -7.20703,12.25782 -5.76953,12.97656 -4.32422,13.69531 -3.60547,15.14063 -2.16015,15.85937 V 1110.3438 H 739.0625 Z m 0,0"
       style="fill:#ffff00;fill-opacity:0.72440898;fill-rule:nonzero;stroke:none" />
    <path
       id="path33"
       d="m 1445.5391,584.80859 v 525.53521 h -53.3438 v -49.7422 l -12.2578,15.8593 -12.2539,13.6993 -13.6953,11.5351 -13.6992,8.6485 -14.418,7.2109 -15.1367,5.043 -6.4883,0.7226 -5.7695,1.4414 -6.4883,0.7227 -6.4883,0.7187 h -7.207 l -6.4883,0.7227 -25.9531,-2.1641 -23.0664,-5.0469 -21.6289,-7.9296 -20.1836,-11.5352 -18.0235,-14.418 -15.1406,-18.7422 -12.2539,-18.7421 -10.0938,-21.6289 -7.9296,-23.0665 -5.7657,-25.23043 -3.6054,-27.39453 -0.7188,-30.27734 0.7188,-29.55859 4.3242,-28.11329 6.4883,-25.95312 9.375,-23.78906 11.5312,-21.62891 15.1406,-19.46484 15.1368,-15.13672 17.3046,-12.97656 18.0196,-9.3711 20.1875,-7.21094 20.9062,-4.32421 23.0664,-1.44141 23.7891,2.16016 21.6289,4.32812 19.4648,7.20703 18.0196,10.81641 15.8633,13.69531 14.4179,15.85938 2.8828,4.32421 V 584.80859 Z m -165.8047,193.20313 -17.3008,1.4414 -15.1406,3.60547 -14.418,6.48438 -12.9766,7.93359 -12.2539,11.53125 -10.0937,12.97656 -8.6485,14.41797 -6.4882,15.14063 -5.7696,16.57812 -3.6015,17.30469 -2.1641,18.74219 -0.7226,20.18359 0.7226,24.51172 2.8828,21.625 5.0469,20.1875 7.207,18.02342 9.375,16.5781 12.2539,13.6993 10.0938,10.0898 10.8125,7.9297 11.5351,5.7695 12.9766,5.0469 12.9766,2.1602 14.4179,0.7226 15.8594,-0.7226 15.1367,-3.6016 13.6992,-6.4883 12.254,-7.9297 11.5351,-11.5351 10.8125,-13.6992 7.9297,-12.9766 6.4883,-15.13673 5.0469,-16.58203 3.6054,-17.30078 2.1602,-18.74219 0.7226,-20.1875 -1.4414,-25.23047 -2.8867,-23.06641 -5.7656,-20.90625 -7.207,-18.74609 -10.0938,-16.57813 -11.5352,-15.14062 -9.371,-7.92969 -10.0938,-7.20703 -10.8125,-5.76953 -11.5352,-3.60547 -12.2539,-2.16016 z m 0,0"
       style="fill:#ffff00;fill-opacity:0.72440898;fill-rule:nonzero;stroke:none" />
    <path
       id="path35"
       d="M 948.87891,402.91797 H 880.39062 L 803.97656,106.62891 731.16797,402.91797 H 663.40234 L 553.82422,25.167969 h 66.32422 L 697.28516,319.29687 769.375,25.167969 h 73.53125 l 74.25,294.128901 74.97656,-294.128901 h 67.76169 z m 0,0"
       style="fill:#ffff00;fill-opacity:0.72440898;fill-rule:nonzero;stroke:none" />
    <path
       id="path37"
       d="m 1178.8438,-122.61328 v 525.53125 h -60.5547 v -525.53125 z m 0,0"
       style="fill:#ffff00;fill-opacity:0.72440898;fill-rule:nonzero;stroke:none" />
    <path
       id="path39"
       d="m 1259.5859,155.65234 2.1602,-63.441402 8.6523,-54.785157 14.418,-46.140625 20.1836,-37.484375 25.9531,-28.835937 31.7188,-20.1875 9.3711,-3.601563 10.0937,-3.605471 10.8125,-2.16406 10.8164,-2.16016 10.8125,-0.72265 12.2539,-0.71875 41.0899,5.04297 36.0469,14.417965 29.5546,24.511719 23.793,33.882812 18.0195,43.972656 12.2579,52.628907 1.4414,14.417969 2.1601,15.136718 0.7227,15.140624 1.4414,15.85938 v 16.57812 l 0.7226,16.58203 -2.164,52.625 -6.4883,46.85938 -10.0938,41.08984 -14.4179,34.60547 -18.0196,29.55469 -22.3476,23.07031 -13.6992,10.09375 -13.6953,7.20703 -15.1407,5.76563 -16.582,5.04687 -17.3008,2.16406 -17.3008,1.44141 -33.8828,-3.60547 -30.2773,-9.37109 -26.6719,-15.13672 -22.3477,-22.34766 -18.746,-28.11719 -14.418,-35.32421 -6.4844,-20.90625 -5.0469,-22.34766 -4.3281,-23.78906 -2.8828,-25.95313 -2.1602,-27.39453 z m 167.2461,-207.62109 -31.7187,6.488281 -25.9531,17.304688 -19.4649,28.835937 -14.418,40.367188 -8.6484,51.90625 -2.1641,63.437496 2.1641,64.88282 8.6484,52.625 14.418,41.08984 19.4649,28.83594 25.2304,17.30078 31,5.76953 21.625,-2.16406 19.4649,-7.92969 16.582,-12.97656 13.6953,-18.01953 11.5352,-23.07032 9.3711,-28.11718 3.6054,-15.85938 2.8828,-18.01953 2.1641,-19.46484 1.4414,-20.90625 0.7227,-22.34766 0.7187,-23.78906 -2.8828,-62.718752 -8.6523,-51.90625 -14.418,-39.648438 -19.4609,-28.835938 -25.9532,-17.300781 z m 0,0"
       style="fill:#ffff00;fill-opacity:0.72440898;fill-rule:nonzero;stroke:none" />
    <path
       id="path41"
       d="M 962.87891,863.5 H 894.39062 L 817.97656,567.21094 745.16797,863.5 H 677.40234 L 567.82422,485.75 h 66.32422 L 711.28516,779.875 783.375,485.75 h 73.53125 l 74.25,294.125 74.97655,-294.125 h 67.7617 z m 0,0"
       style="fill:#ffff00;fill-opacity:0.72440898;fill-rule:nonzero;stroke:none" />
    <path
       id="path43"
       d="M 1192.8438,337.96484 V 863.5 h -60.5547 V 337.96484 Z m 0,0"
       style="fill:#ffff00;fill-opacity:0.72440898;fill-rule:nonzero;stroke:none" />
    <path
       id="path45"
       d="m 1429.2969,499.44531 h -113.1797 v -45.41406 l 19.4648,-2.16406 17.3008,-2.88282 15.1406,-3.60546 12.9727,-2.88282 10.8164,-3.60547 9.3711,-4.32421 7.207,-4.32422 6.4883,-5.04688 5.7695,-5.76953 5.7657,-7.20703 5.0468,-7.92969 5.0469,-9.37109 2.1602,-5.04688 2.164,-5.76953 2.1641,-6.48828 2.8828,-7.92969 2.1641,-7.92968 2.8828,-9.3711 h 41.8125 V 863.5 h -63.4414 z m 0,0"
       style="fill:#ffff00;fill-opacity:0.72440898;fill-rule:nonzero;stroke:none" />
    <path
       id="path47"
       transform="matrix(1,0,0,-1,0.5,1079.5)"
       d="m 824,745 h 64 m -64,-70 h 64 m -64,0 v 70 m 64,-70 v 70 M 822,257 h 64 m -64,-68 h 64 m -64,0 v 68 m 64,-68 v 68 m 142,712 h 64 m -64,-70 h 64 m -64,0 v 70 m 64,-70 v 70 M 985,508 h 66 m -66,-70 h 66 m -66,0 v 70 m 66,-70 v 70"
       style="fill:none;stroke:#ffff00;stroke-width:2;stroke-linecap:butt;stroke-linejoin:miter;stroke-miterlimit:10;stroke-opacity:0.72440898" />
  </g>
</svg>
