<?xml version="1.0" encoding="UTF-8" standalone="no"?>
<svg
   xmlns:dc="http://purl.org/dc/elements/1.1/"
   xmlns:cc="http://creativecommons.org/ns#"
   xmlns:rdf="http://www.w3.org/1999/02/22-rdf-syntax-ns#"
   xmlns:svg="http://www.w3.org/2000/svg"
   xmlns="http://www.w3.org/2000/svg"
   id="svg149"
   version="1.2"
   viewBox="0 0 546 875"
   height="875pt"
   width="546pt">
  <metadata
     id="metadata153">
    <rdf:RDF>
      <cc:Work
         rdf:about="">
        <dc:format>image/svg+xml</dc:format>
        <dc:type
           rdf:resource="http://purl.org/dc/dcmitype/StillImage" />
      </cc:Work>
    </rdf:RDF>
  </metadata>
  <defs
     id="defs74">
    <clipPath
       id="clip1">
      <path
         id="path2"
         d="M 18.5,2.5 H 1898 V 1059 H 18.5 Z m 0,0" />
    </clipPath>
    <clipPath
       id="clip2">
      <path
         id="path5"
         d="m 1142,280 h 35 v 35 h -35 z m 0,0" />
    </clipPath>
    <clipPath
       id="clip3">
      <path
         id="path8"
         d="m 1176.5,314.5 v -34 h -34 z m 0,0" />
    </clipPath>
    <clipPath
       id="clip4">
      <path
         id="path11"
         d="m 1060,314 h 35 v 35 h -35 z m 0,0" />
    </clipPath>
    <clipPath
       id="clip5">
      <path
         id="path14"
         d="m 1060.5,314.5 v 34 h 34 z m 0,0" />
    </clipPath>
    <clipPath
       id="clip6">
      <path
         id="path17"
         d="m 1176,314 h 21 v 21 h -21 z m 0,0" />
    </clipPath>
    <clipPath
       id="clip7">
      <path
         id="path20"
         d="m 1196.5,334.5 v -20 h -20 z m 0,0" />
    </clipPath>
    <clipPath
       id="clip8">
      <path
         id="path23"
         d="m 978,348 h 35 v 35 h -35 z m 0,0" />
    </clipPath>
    <clipPath
       id="clip9">
      <path
         id="path26"
         d="m 1012.5,382.5 v -34 h -34 z m 0,0" />
    </clipPath>
    <clipPath
       id="clip10">
      <path
         id="path29"
         d="m 1094,348 h 21 v 21 h -21 z m 0,0" />
    </clipPath>
    <clipPath
       id="clip11">
      <path
         id="path32"
         d="m 1094.5,348.5 v 20 h 20 z m 0,0" />
    </clipPath>
    <clipPath
       id="clip12">
      <path
         id="path35"
         d="m 896,382 h 35 v 35 h -35 z m 0,0" />
    </clipPath>
    <clipPath
       id="clip13">
      <path
         id="path38"
         d="m 896.5,382.5 v 34 h 34 z m 0,0" />
    </clipPath>
    <clipPath
       id="clip14">
      <path
         id="path41"
         d="m 1012,382 h 21 v 21 h -21 z m 0,0" />
    </clipPath>
    <clipPath
       id="clip15">
      <path
         id="path44"
         d="m 1032.5,402.5 v -20 h -20 z m 0,0" />
    </clipPath>
    <clipPath
       id="clip16">
      <path
         id="path47"
         d="m 814,416 h 35 v 35 h -35 z m 0,0" />
    </clipPath>
    <clipPath
       id="clip17">
      <path
         id="path50"
         d="m 848.5,450.5 v -34 h -34 z m 0,0" />
    </clipPath>
    <clipPath
       id="clip18">
      <path
         id="path53"
         d="m 930,416 h 22 v 21 h -22 z m 0,0" />
    </clipPath>
    <clipPath
       id="clip19">
      <path
         id="path56"
         d="m 930.5,416.5 v 20 h 21 z m 0,0" />
    </clipPath>
    <clipPath
       id="clip20">
      <path
         id="path59"
         d="m 732,450 h 56 v 56 h -56 z m 0,0" />
    </clipPath>
    <clipPath
       id="clip21">
      <path
         id="path62"
         d="m 732.5,450.5 v 55 h 55 z m 0,0" />
    </clipPath>
    <clipPath
       id="clip22">
      <path
         id="path65"
         d="m 848,450 h 22 v 22 h -22 z m 0,0" />
    </clipPath>
    <clipPath
       id="clip23">
      <path
         id="path68"
         d="m 869.5,471.5 v -21 h -21 z m 0,0" />
    </clipPath>
    <clipPath
       id="clip24">
      <path
         id="path71"
         d="m 1142.5,98.5 h 95 v 182 h -95 z m 34,182 h 61 v 34 h -61 z m -198,-182 h 82 v 250 h -82 z m 34,250 h 82 v 20 h -82 z m 0,20 h 102 v 14 h -102 z m -198,-270 h 82 v 318 h -82 z m 34,318 h 82 v 20 h -82 z m 0,20 h 103 v 14 h -103 z m -157,-338 h 41 v 407 h -41 z m 0,407 h 96 v 427 h -96 z m 505,-191 h 41 v 659 h -41 z m -164,68 h 82 v 591 h -82 z m -163,68 h 82 v 523 h -82 z m 0,0" />
    </clipPath>
  </defs>
  <g
     transform="translate(-691.5,-98.5)"
     id="surface208">
    <g
       style="clip-rule:nonzero"
       id="g76"
       clip-path="url(#clip1)" />
    <g
       style="clip-rule:nonzero"
       id="g82"
       clip-path="url(#clip2)">
      <g
         style="clip-rule:nonzero"
         id="g80"
         clip-path="url(#clip3)">
        <rect
           id="rect78"
           style="fill:#b066f0;fill-opacity:0.62992099;stroke:none"
           height="1059"
           width="1898"
           y="0"
           x="0" />
      </g>
    </g>
    <g
       style="clip-rule:nonzero"
       id="g88"
       clip-path="url(#clip4)">
      <g
         style="clip-rule:nonzero"
         id="g86"
         clip-path="url(#clip5)">
        <rect
           id="rect84"
           style="fill:#b066f0;fill-opacity:0.62992099;stroke:none"
           height="1059"
           width="1898"
           y="0"
           x="0" />
      </g>
    </g>
    <g
       style="clip-rule:nonzero"
       id="g94"
       clip-path="url(#clip6)">
      <g
         style="clip-rule:nonzero"
         id="g92"
         clip-path="url(#clip7)">
        <rect
           id="rect90"
           style="fill:#b066f0;fill-opacity:0.62992099;stroke:none"
           height="1059"
           width="1898"
           y="0"
           x="0" />
      </g>
    </g>
    <g
       style="clip-rule:nonzero"
       id="g100"
       clip-path="url(#clip8)">
      <g
         style="clip-rule:nonzero"
         id="g98"
         clip-path="url(#clip9)">
        <rect
           id="rect96"
           style="fill:#b066f0;fill-opacity:0.62992099;stroke:none"
           height="1059"
           width="1898"
           y="0"
           x="0" />
      </g>
    </g>
    <g
       style="clip-rule:nonzero"
       id="g106"
       clip-path="url(#clip10)">
      <g
         style="clip-rule:nonzero"
         id="g104"
         clip-path="url(#clip11)">
        <rect
           id="rect102"
           style="fill:#b066f0;fill-opacity:0.62992099;stroke:none"
           height="1059"
           width="1898"
           y="0"
           x="0" />
      </g>
    </g>
    <g
       style="clip-rule:nonzero"
       id="g112"
       clip-path="url(#clip12)">
      <g
         style="clip-rule:nonzero"
         id="g110"
         clip-path="url(#clip13)">
        <rect
           id="rect108"
           style="fill:#b066f0;fill-opacity:0.62992099;stroke:none"
           height="1059"
           width="1898"
           y="0"
           x="0" />
      </g>
    </g>
    <g
       style="clip-rule:nonzero"
       id="g118"
       clip-path="url(#clip14)">
      <g
         style="clip-rule:nonzero"
         id="g116"
         clip-path="url(#clip15)">
        <rect
           id="rect114"
           style="fill:#b066f0;fill-opacity:0.62992099;stroke:none"
           height="1059"
           width="1898"
           y="0"
           x="0" />
      </g>
    </g>
    <g
       style="clip-rule:nonzero"
       id="g124"
       clip-path="url(#clip16)">
      <g
         style="clip-rule:nonzero"
         id="g122"
         clip-path="url(#clip17)">
        <rect
           id="rect120"
           style="fill:#b066f0;fill-opacity:0.62992099;stroke:none"
           height="1059"
           width="1898"
           y="0"
           x="0" />
      </g>
    </g>
    <g
       style="clip-rule:nonzero"
       id="g130"
       clip-path="url(#clip18)">
      <g
         style="clip-rule:nonzero"
         id="g128"
         clip-path="url(#clip19)">
        <rect
           id="rect126"
           style="fill:#b066f0;fill-opacity:0.62992099;stroke:none"
           height="1059"
           width="1898"
           y="0"
           x="0" />
      </g>
    </g>
    <g
       style="clip-rule:nonzero"
       id="g136"
       clip-path="url(#clip20)">
      <g
         style="clip-rule:nonzero"
         id="g134"
         clip-path="url(#clip21)">
        <rect
           id="rect132"
           style="fill:#b066f0;fill-opacity:0.62992099;stroke:none"
           height="1059"
           width="1898"
           y="0"
           x="0" />
      </g>
    </g>
    <g
       style="clip-rule:nonzero"
       id="g142"
       clip-path="url(#clip22)">
      <g
         style="clip-rule:nonzero"
         id="g140"
         clip-path="url(#clip23)">
        <rect
           id="rect138"
           style="fill:#b066f0;fill-opacity:0.62992099;stroke:none"
           height="1059"
           width="1898"
           y="0"
           x="0" />
      </g>
    </g>
    <g
       style="clip-rule:nonzero"
       id="g146"
       clip-path="url(#clip24)">
      <rect
         id="rect144"
         style="fill:#b066f0;fill-opacity:0.62992099;stroke:none"
         height="1059"
         width="1898"
         y="0"
         x="0" />
    </g>
  </g>
</svg>
