<?xml version="1.0" encoding="UTF-8" standalone="no"?>
<svg
   xmlns:dc="http://purl.org/dc/elements/1.1/"
   xmlns:cc="http://creativecommons.org/ns#"
   xmlns:rdf="http://www.w3.org/1999/02/22-rdf-syntax-ns#"
   xmlns:svg="http://www.w3.org/2000/svg"
   xmlns="http://www.w3.org/2000/svg"
   id="svg50"
   version="1.2"
   viewBox="0 0 1663.6797 1252.1133"
   height="1252.1133pt"
   width="1663.6797pt">
  <metadata
     id="metadata54">
    <rdf:RDF>
      <cc:Work
         rdf:about="">
        <dc:format>image/svg+xml</dc:format>
        <dc:type
           rdf:resource="http://purl.org/dc/dcmitype/StillImage" />
      </cc:Work>
    </rdf:RDF>
  </metadata>
  <defs
     id="defs11">
    <clipPath
       id="clip1">
      <path
         id="path2"
         d="M 18.5,2.5 H 1898 V 1059 H 18.5 Z m 0,0" />
    </clipPath>
    <clipPath
       id="clip2">
      <path
         id="path5"
         d="m 1205.5,98.5 h 441 v 61 h -441 z m 0,490 h 441 v 61 h -441 z m 37,160 h 404 v 62 h -404 z m 0,62 h 103 v 103 h -103 z m 0,103 h 404 v 62 h -404 z m 0,0" />
    </clipPath>
    <clipPath
       id="clip3">
      <path
         id="path8"
         d="m 275.5,98.5 h 1371 v 99 h -1371 z m 988,99 h 169 v 28 h -169 z m -988,98 h 918 v 29 h -918 z m 1227,0 h 144 v 29 h -144 z m -1227,29 h 1371 v 99 h -1371 z m 1227,99 h 144 v 29 h -144 z m -1227,0 h 918 v 29 h -918 z m 988,99 h 169 v 29 h -169 z m -988,29 h 1371 v 98 h -1371 z m 0,197 h 1371 v 227 h -1371 z m 0,0" />
    </clipPath>
  </defs>
  <g
     transform="translate(-135.21875,122.61328)"
     id="surface224">
    <g
       style="clip-rule:nonzero"
       id="g13"
       clip-path="url(#clip1)" />
    <g
       style="clip-rule:nonzero"
       id="g17"
       clip-path="url(#clip2)">
      <rect
         id="rect15"
         style="fill:#eb0000;fill-opacity:0.94488196;stroke:none"
         height="1059"
         width="1898"
         y="0"
         x="0" />
    </g>
    <g
       style="clip-rule:nonzero"
       id="g21"
       clip-path="url(#clip3)">
      <rect
         id="rect19"
         style="fill:#ff78f3;fill-opacity:0.62992099;stroke:none"
         height="1059"
         width="1898"
         y="0"
         x="0" />
    </g>
    <path
       id="path23"
       d="m 204.26172,365.95312 0.72265,24.51172 2.16407,23.07032 4.32422,21.625 5.76562,21.6289 7.92969,20.1836 10.09375,18.74218 17.30078,26.67578 20.90625,21.625 23.78906,17.30079 26.67578,12.25781 30.27735,7.92969 33.16015,2.88281 h 5.04688 l 22.34765,-0.72266 21.625,-3.60156 19.46485,-6.48828 18.74219,-7.92969 17.30468,-10.81641 16.57813,-13.69531 13.69922,-14.41797 11.53515,-15.85937 9.3711,-18.02344 6.48828,-18.74219 4.32422,-20.1875 2.88281,-21.625 v -7.21093 l 0.72266,-2.16016 V 408.48828 H 397.46484 V 349.375 h 219.15235 v 280.42969 h -42.53516 l -16.57812,-69.92969 -23.07032,23.07031 -24.51172,19.46485 -25.23046,15.85937 -26.67188,10.8125 -27.39453,7.92969 -28.11328,5.04687 h -8.65235 l -3.60546,0.71875 h -8.64844 L 378,643.5 l -30.27734,-2.16406 -28.83594,-5.04297 -27.39453,-7.9336 -25.23047,-11.53125 -23.79297,-15.14062 -22.34766,-18.74219 -20.18359,-20.1875 -17.30078,-23.0664 -14.41797,-24.51172 -11.53516,-27.39453 -9.37109,-29.55469 -5.76953,-31.71875 -1.44141,-8.65235 -1.4414,-9.37109 -0.71875,-9.37109 -0.72266,-10.09375 v -19.46485 l 0.72266,-26.67187 2.88281,-25.95313 4.32422,-25.23047 7.21093,-24.51171 7.92969,-23.78907 10.8125,-23.78906 18.02344,-30.27734 20.90625,-26.67578 25.23047,-22.34766 27.39453,-18.01953 30.99609,-13.69922 34.60547,-10.09375 9.3711,-1.441406 10.09375,-1.441406 10.08984,-0.71875 10.09375,-1.441407 h 10.8125 l 10.81641,-0.722656 34.60156,2.164063 32.4414,5.042968 29.55469,8.652344 26.67578,12.25391 23.78907,15.85937 21.625,18.74609 12.25781,14.41797 10.8125,15.85938 9.37109,17.30078 7.92969,18.02344 5.76562,19.46484 5.04688,20.18359 h -68.48438 l -5.76562,-18.74218 -7.21094,-17.30078 -10.09375,-15.86329 -11.53125,-13.69531 -14.41797,-12.2539 -15.85937,-10.81641 -12.97656,-5.76563 -13.69922,-5.04687 -14.41797,-4.32422 -14.41797,-2.16406 -15.85938,-2.16016 -15.85937,-0.72265 -26.67188,2.16406 -24.51171,4.32422 -22.34766,7.20703 -20.90625,10.8164 -19.46484,13.69532 -17.30079,16.58203 -15.85937,20.18359 -12.97656,22.34766 -10.09375,24.51172 -7.92969,26.67187 -5.04688,28.83594 -1.4414,31 z m 0,0"
       style="fill:#ffff00;fill-opacity:0.72440898;fill-rule:nonzero;stroke:none" />
    <path
       id="path25"
       d="m 1131.3359,101.38672 v 525.53125 h -75.6914 L 783.86328,200.86719 v 426.05078 h -63.4375 V 101.38672 h 72.80859 L 1067.8984,531.03906 V 101.38672 Z m 0,0"
       style="fill:#ffff00;fill-opacity:0.72440898;fill-rule:nonzero;stroke:none" />
    <path
       id="path27"
       d="M 1249.5664,626.91797 V 101.38672 h 202.5703 l 31.7188,2.16016 29.5586,5.76953 27.3945,10.08984 25.2305,12.97656 22.3476,18.02344 20.9063,20.90625 17.3008,25.23047 14.4179,27.39453 10.8125,31 7.9297,33.16016 4.3281,36.76562 2.1602,38.92969 -2.1602,41.08984 -5.0468,38.20703 -8.6524,34.60547 -11.5351,31.71875 -15.1368,28.11328 -18.7421,24.51172 -20.1875,20.1836 -22.3477,15.85937 -24.5117,12.97656 -26.6719,8.65235 -28.8359,5.76562 -30.2774,1.44141 z m 67.043,-59.11328 h 123.9922 l 33.164,-2.16016 29.5547,-7.92969 25.9531,-13.69922 21.625,-18.02343 17.3047,-24.50782 14.418,-29.55859 4.3242,-15.13672 4.3242,-15.85937 3.6055,-17.30469 2.1641,-18.74219 1.4414,-19.46484 0.7187,-20.90625 -2.8828,-46.85938 -7.2109,-41.08984 -12.9727,-35.32422 -17.3047,-28.11328 -22.3476,-23.07031 -27.3946,-16.57813 -10.0898,-3.60547 -10.8164,-3.60547 -11.5313,-2.16406 -11.5351,-2.16015 -12.2539,-0.72266 -12.2578,-0.71875 h -123.9922 z m 0,0"
       style="fill:#ffff00;fill-opacity:0.72440898;fill-rule:nonzero;stroke:none" />
    <path
       id="path29"
       d="m 202.26172,851.95312 0.72265,24.51172 2.16407,23.07032 4.32422,21.625 5.76562,21.6289 7.92969,20.1836 10.09375,18.74218 17.30078,26.67576 20.90625,21.625 23.78906,17.3008 26.67578,12.2578 30.27735,7.9297 33.16015,2.8828 h 5.04688 l 22.34765,-0.7226 21.625,-3.6016 19.46485,-6.4883 18.74219,-7.9297 17.30468,-10.8164 16.57813,-13.6953 13.69922,-14.418 11.53515,-15.85933 9.3711,-18.02344 6.48828,-18.74219 4.32422,-20.1875 2.88281,-21.625 v -7.21093 l 0.72266,-2.16016 V 894.48828 H 395.46484 V 835.375 h 219.15235 v 280.4297 h -42.53516 l -16.57812,-69.9297 -23.07032,23.0703 -24.51172,19.4649 -25.23046,15.8593 -26.67188,10.8125 -27.39453,7.9297 -28.11328,5.0469 h -8.65235 l -3.60546,0.7187 h -8.64844 L 376,1129.5 l -30.27734,-2.1641 -28.83594,-5.0429 -27.39453,-7.9336 -25.23047,-11.5313 -23.79297,-15.1406 -22.34766,-18.7422 -20.18359,-20.1875 -17.30078,-23.0664 -14.41797,-24.5117 -11.53516,-27.39454 -9.37109,-29.55469 -5.76953,-31.71875 -1.44141,-8.65235 -1.4414,-9.37109 -0.71875,-9.37109 -0.72266,-10.09375 v -19.46485 l 0.72266,-26.67187 2.88281,-25.95313 4.32422,-25.23047 7.21093,-24.51171 7.92969,-23.78907 10.8125,-23.78906 18.02344,-30.27734 20.90625,-26.67578 25.23047,-22.34766 27.39453,-18.01953 30.99609,-13.69922 34.60547,-10.09375 9.3711,-1.44141 10.09375,-1.4414 10.08984,-0.71875 10.09375,-1.44141 h 10.8125 l 10.81641,-0.72266 34.60156,2.16407 32.4414,5.04297 29.55469,8.65234 26.67578,12.25391 23.78907,15.85937 21.625,18.74609 12.25781,14.41797 10.8125,15.85938 9.37109,17.30078 7.92969,18.02344 5.76562,19.46484 5.04688,20.18359 h -68.48438 l -5.76562,-18.74218 -7.21094,-17.30078 -10.09375,-15.86329 -11.53125,-13.69531 -14.41797,-12.2539 -15.85937,-10.81641 -12.97656,-5.76563 -13.69922,-5.04687 -14.41797,-4.32422 -14.41797,-2.16406 -15.85938,-2.16016 -15.85937,-0.72265 -26.67188,2.16406 -24.51171,4.32422 -22.34766,7.20703 -20.90625,10.8164 -19.46484,13.69532 -17.30079,16.58203 -15.85937,20.18359 -12.97656,22.34766 -10.09375,24.51172 -7.92969,26.67187 -5.04688,28.83594 -1.4414,31 z m 0,0"
       style="fill:#ffff00;fill-opacity:0.72440898;fill-rule:nonzero;stroke:none" />
    <path
       id="path31"
       d="M 1129.3359,587.38672 V 1112.918 h -75.6914 L 781.86328,686.86719 V 1112.918 h -63.4375 V 587.38672 h 72.80859 L 1065.8984,1017.0391 V 587.38672 Z m 0,0"
       style="fill:#ffff00;fill-opacity:0.72440898;fill-rule:nonzero;stroke:none" />
    <path
       id="path33"
       d="M 1247.5664,1112.918 V 587.38672 h 202.5703 l 31.7188,2.16015 29.5586,5.76954 27.3945,10.08984 25.2305,12.97656 22.3476,18.02344 20.9063,20.90625 17.3008,25.23047 14.4179,27.39453 10.8125,31 7.9297,33.16016 4.3281,36.76562 2.1602,38.92969 -2.1602,41.08984 -5.0468,38.20703 -8.6524,34.60547 -11.5351,31.71875 -15.1368,28.11324 -18.7421,24.5118 -20.1875,20.1836 -22.3477,15.8593 -24.5117,12.9766 -26.6719,8.6523 -28.8359,5.7657 -30.2774,1.4414 z m 67.043,-59.1133 h 123.9922 l 33.164,-2.1602 29.5547,-7.9297 25.9531,-13.6992 21.625,-18.0234 17.3047,-24.50783 14.418,-29.55859 4.3242,-15.13672 4.3242,-15.85937 3.6055,-17.30469 2.1641,-18.74219 1.4414,-19.46484 0.7187,-20.90625 -2.8828,-46.85938 -7.2109,-41.08984 -12.9727,-35.32422 -17.3047,-28.11328 -22.3476,-23.07031 -27.3946,-16.57813 -10.0898,-3.60547 -10.8164,-3.60547 -11.5313,-2.16406 -11.5351,-2.16015 -12.2539,-0.72266 -12.2578,-0.71875 h -123.9922 z m 0,0"
       style="fill:#ffff00;fill-opacity:0.72440898;fill-rule:nonzero;stroke:none" />
    <path
       id="path35"
       d="M 889.84766,402.91797 H 816.31641 L 695.20703,-28.898438 577.69922,402.91797 h -73.53125 l -134.8086,-525.53125 h 74.97266 l 98.76563,426.76953 116.78515,-426.76953 h 72.08985 l 119.66796,426.76953 96.60157,-426.76953 h 74.97261 z m 0,0"
       style="fill:#ffff00;fill-opacity:0.72440898;fill-rule:nonzero;stroke:none" />
    <path
       id="path37"
       d="m 1158.0234,-122.61328 v 466.41797 h 259.5196 v 59.11328 h -326.5664 v -525.53125 z m 0,0"
       style="fill:#ffff00;fill-opacity:0.72440898;fill-rule:nonzero;stroke:none" />
    <path
       id="path39"
       d="m 1464.4023,155.65234 2.1641,-63.441402 8.6484,-54.785157 14.418,-46.140625 20.1875,-37.484375 25.9531,-28.835937 31.7188,-20.1875 9.3711,-3.601563 10.0937,-3.605471 10.8125,-2.16406 10.8125,-2.16016 10.8125,-0.72265 12.2578,-0.71875 41.0899,5.04297 36.0469,14.417965 29.5547,24.511719 23.789,33.882812 18.0235,43.972656 12.2539,52.628907 1.4414,14.417969 2.164,15.136718 0.7227,15.140624 1.4414,15.85938 v 16.57812 l 0.7187,16.58203 -2.1601,52.625 -6.4883,46.85938 -10.0937,41.08984 -14.418,34.60547 -18.0235,29.55469 -22.3476,23.07031 -13.6953,10.09375 -13.6992,7.20703 -15.1368,5.76563 -16.582,5.04687 -17.3008,2.16406 -17.3008,1.44141 -33.8828,-3.60547 -30.2773,-9.37109 -26.6719,-15.13672 -22.3515,-22.34766 -18.7422,-28.11719 -14.418,-35.32421 -6.4883,-20.90625 -5.0469,-22.34766 -4.3242,-23.78906 -2.8828,-25.95313 -2.1641,-27.39453 z m 167.25,-207.62109 -31.7187,6.488281 -25.9531,17.304688 -19.4649,28.835937 -14.4179,40.367188 -8.6524,51.90625 -2.1601,63.437496 2.1601,64.88282 8.6524,52.625 14.4179,41.08984 19.4649,28.83594 25.2304,17.30078 31,5.76953 21.625,-2.16406 19.4649,-7.92969 16.582,-12.97656 13.6953,-18.01953 11.5352,-23.07032 9.3711,-28.11718 3.6054,-15.85938 2.8829,-18.01953 2.164,-19.46484 1.4414,-20.90625 0.7188,-22.34766 0.7226,-23.78906 -2.8828,-62.718752 -8.6523,-51.90625 -14.418,-39.648438 -19.4648,-28.835938 -25.9532,-17.300781 z m 0,0"
       style="fill:#ffff00;fill-opacity:0.72440898;fill-rule:nonzero;stroke:none" />
    <path
       id="path41"
       d="M 903.84766,863.5 H 830.31641 L 709.20703,431.68359 591.69922,863.5 H 518.16797 L 383.35937,337.96484 h 74.97266 l 98.76563,426.77344 116.78515,-426.77344 h 72.08985 l 119.66796,426.77344 96.60157,-426.77344 h 74.97261 z m 0,0"
       style="fill:#ffff00;fill-opacity:0.72440898;fill-rule:nonzero;stroke:none" />
    <path
       id="path43"
       d="M 1172.0234,337.96484 V 804.38672 H 1431.543 V 863.5 H 1104.9766 V 337.96484 Z m 0,0"
       style="fill:#ffff00;fill-opacity:0.72440898;fill-rule:nonzero;stroke:none" />
    <path
       id="path45"
       d="m 1634.1172,499.44531 h -113.1797 v -45.41406 l 19.4648,-2.16406 17.3008,-2.88282 15.1367,-3.60546 12.9766,-2.88282 10.8125,-3.60547 9.375,-4.32421 7.207,-4.32422 6.4883,-5.04688 5.7656,-5.76953 5.7696,-7.20703 5.0469,-7.92969 5.0429,-9.37109 2.1641,-5.04688 2.164,-5.76953 2.1602,-6.48828 2.8867,-7.92969 2.1602,-7.92968 2.8828,-9.3711 h 41.8125 V 863.5 h -63.4375 z m 0,0"
       style="fill:#ffff00;fill-opacity:0.72440898;fill-rule:nonzero;stroke:none" />
    <path
       id="path47"
       transform="matrix(1,0,0,-1,0.5,1079.5)"
       d="m 824,745 h 64 m -64,-70 h 64 m -64,0 v 70 m 64,-70 v 70 M 822,257 h 64 m -64,-68 h 64 m -64,0 v 68 m 64,-68 v 68 m 142,712 h 64 m -64,-70 h 64 m -64,0 v 70 m 64,-70 v 70 M 985,508 h 66 m -66,-70 h 66 m -66,0 v 70 m 66,-70 v 70"
       style="fill:none;stroke:#ffff00;stroke-width:2;stroke-linecap:butt;stroke-linejoin:miter;stroke-miterlimit:10;stroke-opacity:0.72440898" />
  </g>
</svg>
